{
	"asset":{
		"generator":"Khronos glTF Blender I/O v4.5.48",
		"version":"2.0"
	},
	"extensionsUsed":[
		"KHR_materials_specular"
	],
	"scene":0,
	"scenes":[
		{
			"name":"Scene",
			"nodes":[
				36
			]
		}
	],
	"nodes":[
		{
			"mesh":0,
			"name":"fairingy",
			"translation":[
				0.7646188735961914,
				-0.039004165679216385,
				-1.4186973571777344
			]
		},
		{
			"mesh":1,
			"name":"fairingz",
			"translation":[
				-0.7812365889549255,
				-0.039004165679216385,
				-1.4186973571777344
			]
		},
		{
			"children":[
				0,
				1
			],
			"name":"fairinggroup",
			"translation":[
				0.012227530591189861,
				0.03854386880993843,
				20.2189998626709
			]
		},
		{
			"name":"booster01",
			"translation":[
				0,
				1.2869911193847656,
				0.0012626530369743705
			]
		},
		{
			"name":"booster02",
			"translation":[
				0,
				1.2869911193847656,
				0.0012626530369743705
			]
		},
		{
			"name":"booster03",
			"translation":[
				0,
				1.2869911193847656,
				0.0012626530369743705
			]
		},
		{
			"name":"booster04",
			"translation":[
				0,
				1.2869911193847656,
				0.0012626530369743705
			]
		},
		{
			"children":[
				3,
				4,
				5,
				6
			],
			"name":"boostergroup",
			"rotation":[
				-0.70710688829422,
				0,
				0,
				0.7071066498756409
			],
			"scale":[
				0.453110009431839,
				0.453110009431839,
				0.453110009431839
			],
			"translation":[
				0.013266462832689285,
				-0.0404357872903347,
				-0.0006790307234041393
			]
		},
		{
			"mesh":2,
			"name":"one-stage-flame",
			"rotation":[
				0.7071068286895752,
				0,
				0,
				0.7071068286895752
			],
			"scale":[
				0.9000000357627869,
				0.9000000357627869,
				0.9000000357627869
			],
			"translation":[
				-0.022748246788978577,
				72.09752655029297,
				0.015454979613423347
			]
		},
		{
			"children":[
				8
			],
			"name":"one-stage-flame1-base",
			"rotation":[
				-0.70710688829422,
				0,
				0,
				0.7071066498756409
			],
			"scale":[
				0.453110009431839,
				0.453110009431839,
				0.453110009431839
			],
			"translation":[
				0.01030745916068554,
				-0.006997459102421999,
				-0.40729713439941406
			]
		},
		{
			"name":"WeiYigroup",
			"rotation":[
				-0.70710688829422,
				0,
				0,
				0.7071066498756409
			],
			"scale":[
				0.453110009431839,
				0.453110009431839,
				0.453110009431839
			],
			"translation":[
				0,
				0.21545350551605225,
				0
			]
		},
		{
			"children":[
				7,
				9,
				10
			],
			"mesh":3,
			"name":"one-stage",
			"translation":[
				-7.18322116881609e-05,
				-0.0004583668487612158,
				-25.359617233276367
			]
		},
		{
			"mesh":4,
			"name":"Three-stage-flame",
			"rotation":[
				0.7071068286895752,
				0,
				0,
				0.7071068286895752
			],
			"scale":[
				0.5063730478286743,
				0.5063730478286743,
				0.5063730478286743
			],
			"translation":[
				-0.05764240026473999,
				43.11725616455078,
				0.055220216512680054
			]
		},
		{
			"children":[
				12
			],
			"name":"three-stage-flame-base",
			"rotation":[
				-0.70710688829422,
				0,
				0,
				0.7071066498756409
			],
			"scale":[
				0.453110009431839,
				0.453110009431839,
				0.453110009431839
			],
			"translation":[
				0.026837870478630066,
				-0.02360677905380726,
				0.00256728264503181
			]
		},
		{
			"name":"three-stage-flameS1-base",
			"rotation":[
				0,
				0,
				-0.7071064710617065,
				0.7071071863174438
			],
			"scale":[
				0.24732400476932526,
				0.24732400476932526,
				0.24732400476932526
			],
			"translation":[
				-0.5259234309196472,
				0.006250336766242981,
				0.0023260137531906366
			]
		},
		{
			"name":"three-stage-flameS2-base",
			"scale":[
				0.24732400476932526,
				0.24732400476932526,
				0.24732400476932526
			],
			"translation":[
				0.000353887677192688,
				-0.5200267434120178,
				0.002324871951714158
			]
		},
		{
			"name":"three-stage-flameS3-base",
			"rotation":[
				0,
				0,
				-0.7071064710617065,
				0.7071071863174438
			],
			"scale":[
				0.24732400476932526,
				0.24732400476932526,
				0.24732400476932526
			],
			"translation":[
				0.5266305208206177,
				0.006250336766242981,
				0.0023255369160324335
			]
		},
		{
			"name":"three-stage-flameS4-base",
			"scale":[
				0.24732400476932526,
				0.24732400476932526,
				0.24732400476932526
			],
			"translation":[
				0.0003538951277732849,
				0.5325269103050232,
				0.002326201880350709
			]
		},
		{
			"children":[
				13,
				14,
				15,
				16,
				17
			],
			"mesh":5,
			"name":"three-stage",
			"translation":[
				-7.183104753494263e-05,
				-0.0004583667032420635,
				7.061465740203857
			]
		},
		{
			"mesh":6,
			"name":"two-stage-flame",
			"translation":[
				-0.005928313359618187,
				43.61429214477539,
				-0.0034861189778894186
			]
		},
		{
			"children":[
				19
			],
			"name":"two-stage-flame-base",
			"rotation":[
				-0.70710688829422,
				0,
				0,
				0.7071066498756409
			],
			"scale":[
				0.453110009431839,
				0.453110009431839,
				0.453110009431839
			],
			"translation":[
				-0.0026459982618689537,
				-0.006701469421386719,
				0.0025658581871539354
			]
		},
		{
			"children":[
				20
			],
			"mesh":7,
			"name":"two-stage",
			"translation":[
				-7.18322116881609e-05,
				-0.0004583668487612158,
				-4.210542678833008
			]
		},
		{
			"mesh":8,
			"name":"Warhead01-flame.001",
			"translation":[
				-0.004154464695602655,
				0.0017629711655899882,
				0.7957841157913208
			]
		},
		{
			"children":[
				22
			],
			"name":"Warhead01-flame"
		},
		{
			"children":[
				23
			],
			"mesh":9,
			"name":"Warhead01",
			"scale":[
				0.5458369851112366,
				0.5458369851112366,
				0.5458369851112366
			],
			"translation":[
				0.40642017126083374,
				-0.03821052238345146,
				0.0047760009765625
			]
		},
		{
			"mesh":10,
			"name":"Warhead02-flame.001",
			"translation":[
				-0.004154464695602655,
				0.0017629711655899882,
				0.7957838773727417
			]
		},
		{
			"children":[
				25
			],
			"name":"Warhead02-flame"
		},
		{
			"children":[
				26
			],
			"mesh":11,
			"name":"Warhead02",
			"scale":[
				0.5458369851112366,
				0.5458369851112366,
				0.5458369851112366
			],
			"translation":[
				-0.4285792112350464,
				-0.03821052238345146,
				0.0047760009765625
			]
		},
		{
			"mesh":12,
			"name":"Warhead03-flame.001",
			"translation":[
				-0.004154525697231293,
				0.0017631027149036527,
				0.7957836985588074
			]
		},
		{
			"children":[
				28
			],
			"name":"Warhead03-flame"
		},
		{
			"children":[
				29
			],
			"mesh":13,
			"name":"Warhead03",
			"scale":[
				0.5458369851112366,
				0.5458369851112366,
				0.5458369851112366
			],
			"translation":[
				-0.011079619638621807,
				-0.45571574568748474,
				0.0047758519649505615
			]
		},
		{
			"mesh":14,
			"name":"Warhead04-flame.001",
			"translation":[
				-0.004154525697231293,
				0.001762864296324551,
				0.7957842946052551
			]
		},
		{
			"children":[
				31
			],
			"name":"Warhead04-flame"
		},
		{
			"children":[
				32
			],
			"mesh":15,
			"name":"Warhead04",
			"scale":[
				0.5458369851112366,
				0.5458369851112366,
				0.5458369851112366
			],
			"translation":[
				-0.011079619638621807,
				0.37929093837738037,
				0.004776150453835726
			]
		},
		{
			"children":[
				24,
				27,
				30,
				33
			],
			"name":"Warheadgroup",
			"translation":[
				0.012227533385157585,
				0.03854438289999962,
				18.76026725769043
			]
		},
		{
			"children":[
				2,
				11,
				18,
				21,
				34
			],
			"name":"cz2e",
			"rotation":[
				-0.70710688829422,
				0,
				0,
				0.7071066498756409
			]
		},
		{
			"children":[
				35
			],
			"name":"RootNode",
			"rotation":[
				0.7071068286895752,
				0,
				0,
				0.7071068286895752
			]
		}
	],
	"materials":[
		{
			"doubleSided":true,
			"emissiveFactor":[
				0.20000000298023224,
				0.20000000298023224,
				0.20000000298023224
			],
			"emissiveTexture":{
				"index":0
			},
			"extensions":{
				"KHR_materials_specular":{
					"specularFactor":0
				}
			},
			"name":"M_SS-25",
			"pbrMetallicRoughness":{
				"baseColorTexture":{
					"index":1
				},
				"roughnessFactor":0.858578622341156
			}
		},
		{
			"alphaMode":"BLEND",
			"doubleSided":true,
			"emissiveFactor":[
				1,
				1,
				1
			],
			"emissiveTexture":{
				"index":2
			},
			"extensions":{
				"KHR_materials_specular":{
					"specularFactor":0
				}
			},
			"name":"Flames.011",
			"pbrMetallicRoughness":{
				"baseColorTexture":{
					"index":3
				},
				"roughnessFactor":0.858578622341156
			}
		}
	],
	"meshes":[
		{
			"name":"fairingy",
			"primitives":[
				{
					"attributes":{
						"POSITION":0,
						"NORMAL":1,
						"TEXCOORD_0":2
					},
					"indices":3,
					"material":0
				}
			]
		},
		{
			"name":"fairingz",
			"primitives":[
				{
					"attributes":{
						"POSITION":4,
						"NORMAL":5,
						"TEXCOORD_0":6
					},
					"indices":7,
					"material":0
				}
			]
		},
		{
			"name":"one-stage-flame",
			"primitives":[
				{
					"attributes":{
						"POSITION":8,
						"NORMAL":9,
						"TEXCOORD_0":10
					},
					"indices":11,
					"material":1
				}
			]
		},
		{
			"name":"one-stage",
			"primitives":[
				{
					"attributes":{
						"POSITION":12,
						"NORMAL":13,
						"TEXCOORD_0":14
					},
					"indices":15,
					"material":0
				}
			]
		},
		{
			"name":"Three-stage-flame",
			"primitives":[
				{
					"attributes":{
						"POSITION":16,
						"NORMAL":17,
						"TEXCOORD_0":18
					},
					"indices":11,
					"material":1
				}
			]
		},
		{
			"name":"three-stage",
			"primitives":[
				{
					"attributes":{
						"POSITION":19,
						"NORMAL":20,
						"TEXCOORD_0":21
					},
					"indices":22,
					"material":0
				}
			]
		},
		{
			"name":"two-stage-flame",
			"primitives":[
				{
					"attributes":{
						"POSITION":23,
						"NORMAL":24,
						"TEXCOORD_0":25
					},
					"indices":11,
					"material":1
				}
			]
		},
		{
			"name":"two-stage",
			"primitives":[
				{
					"attributes":{
						"POSITION":26,
						"NORMAL":27,
						"TEXCOORD_0":28
					},
					"indices":29,
					"material":0
				}
			]
		},
		{
			"name":"Warhead01-flame",
			"primitives":[
				{
					"attributes":{
						"POSITION":30,
						"NORMAL":31,
						"TEXCOORD_0":32
					},
					"indices":11,
					"material":1
				}
			]
		},
		{
			"name":"Warhead01",
			"primitives":[
				{
					"attributes":{
						"POSITION":33,
						"NORMAL":34,
						"TEXCOORD_0":35
					},
					"indices":36,
					"material":0
				}
			]
		},
		{
			"name":"Warhead02-flame",
			"primitives":[
				{
					"attributes":{
						"POSITION":37,
						"NORMAL":38,
						"TEXCOORD_0":39
					},
					"indices":11,
					"material":1
				}
			]
		},
		{
			"name":"Warhead02",
			"primitives":[
				{
					"attributes":{
						"POSITION":40,
						"NORMAL":41,
						"TEXCOORD_0":42
					},
					"indices":36,
					"material":0
				}
			]
		},
		{
			"name":"Warhead03-flame",
			"primitives":[
				{
					"attributes":{
						"POSITION":43,
						"NORMAL":44,
						"TEXCOORD_0":45
					},
					"indices":11,
					"material":1
				}
			]
		},
		{
			"name":"Warhead03",
			"primitives":[
				{
					"attributes":{
						"POSITION":46,
						"NORMAL":47,
						"TEXCOORD_0":48
					},
					"indices":36,
					"material":0
				}
			]
		},
		{
			"name":"Warhead04-flame",
			"primitives":[
				{
					"attributes":{
						"POSITION":49,
						"NORMAL":50,
						"TEXCOORD_0":51
					},
					"indices":11,
					"material":1
				}
			]
		},
		{
			"name":"Warhead04",
			"primitives":[
				{
					"attributes":{
						"POSITION":52,
						"NORMAL":53,
						"TEXCOORD_0":54
					},
					"indices":36,
					"material":0
				}
			]
		}
	],
	"textures":[
		{
			"sampler":0,
			"source":0
		},
		{
			"sampler":0,
			"source":0
		},
		{
			"sampler":0,
			"source":1
		},
		{
			"sampler":0,
			"source":2
		}
	],
	"images":[
		{
			"bufferView":4,
			"mimeType":"image/jpeg",
			"name":"T_MinBing3"
		},
		{
			"bufferView":13,
			"mimeType":"image/jpeg",
			"name":"launchvehicle_img15"
		},
		{
			"bufferView":14,
			"mimeType":"image/png",
			"name":"Map #17-Map #18"
		}
	],
	"accessors":[
		{
			"bufferView":0,
			"componentType":5126,
			"count":230,
			"max":[
				0.11003631353378296,
				0.886947512626648,
				5.5395050048828125
			],
			"min":[
				-0.7769190073013306,
				-0.8869618773460388,
				-7.62939453125e-06
			],
			"type":"VEC3"
		},
		{
			"bufferView":1,
			"componentType":5126,
			"count":230,
			"type":"VEC3"
		},
		{
			"bufferView":2,
			"componentType":5126,
			"count":230,
			"type":"VEC2"
		},
		{
			"bufferView":3,
			"componentType":5123,
			"count":672,
			"type":"SCALAR"
		},
		{
			"bufferView":5,
			"componentType":5126,
			"count":230,
			"max":[
				0.7689380049705505,
				0.8869513869285583,
				5.5395050048828125
			],
			"min":[
				-0.11801731586456299,
				-0.8869580030441284,
				-7.62939453125e-06
			],
			"type":"VEC3"
		},
		{
			"bufferView":6,
			"componentType":5126,
			"count":230,
			"type":"VEC3"
		},
		{
			"bufferView":7,
			"componentType":5126,
			"count":230,
			"type":"VEC2"
		},
		{
			"bufferView":8,
			"componentType":5123,
			"count":672,
			"type":"SCALAR"
		},
		{
			"bufferView":9,
			"componentType":5126,
			"count":14,
			"max":[
				15.03223991394043,
				13.018319129943848,
				86.74597930908203
			],
			"min":[
				-15.032238006591797,
				-13.018318176269531,
				-86.74598693847656
			],
			"type":"VEC3"
		},
		{
			"bufferView":10,
			"componentType":5126,
			"count":14,
			"type":"VEC3"
		},
		{
			"bufferView":11,
			"componentType":5126,
			"count":14,
			"type":"VEC2"
		},
		{
			"bufferView":12,
			"componentType":5123,
			"count":18,
			"type":"SCALAR"
		},
		{
			"bufferView":15,
			"componentType":5126,
			"count":2860,
			"max":[
				2.0401477813720703,
				2.0401477813720703,
				21.26097869873047
			],
			"min":[
				-2.0401477813720703,
				-2.0401482582092285,
				-0.26848694682121277
			],
			"type":"VEC3"
		},
		{
			"bufferView":16,
			"componentType":5126,
			"count":2860,
			"type":"VEC3"
		},
		{
			"bufferView":17,
			"componentType":5126,
			"count":2860,
			"type":"VEC2"
		},
		{
			"bufferView":18,
			"componentType":5123,
			"count":6900,
			"type":"SCALAR"
		},
		{
			"bufferView":19,
			"componentType":5126,
			"count":14,
			"max":[
				15.03223991394043,
				13.018319129943848,
				86.74597930908203
			],
			"min":[
				-15.032238006591797,
				-13.018318176269531,
				-86.74598693847656
			],
			"type":"VEC3"
		},
		{
			"bufferView":20,
			"componentType":5126,
			"count":14,
			"type":"VEC3"
		},
		{
			"bufferView":21,
			"componentType":5126,
			"count":14,
			"type":"VEC2"
		},
		{
			"bufferView":22,
			"componentType":5126,
			"count":2178,
			"max":[
				1.5600451231002808,
				1.5600414276123047,
				11.738834381103516
			],
			"min":[
				-1.5600433349609375,
				-1.5600472688674927,
				-0.8857231140136719
			],
			"type":"VEC3"
		},
		{
			"bufferView":23,
			"componentType":5126,
			"count":2178,
			"type":"VEC3"
		},
		{
			"bufferView":24,
			"componentType":5126,
			"count":2178,
			"type":"VEC2"
		},
		{
			"bufferView":25,
			"componentType":5123,
			"count":6528,
			"type":"SCALAR"
		},
		{
			"bufferView":26,
			"componentType":5126,
			"count":14,
			"max":[
				7.666442394256592,
				44.24045181274414,
				6.639349937438965
			],
			"min":[
				-7.666441440582275,
				-44.240447998046875,
				-6.639349460601807
			],
			"type":"VEC3"
		},
		{
			"bufferView":27,
			"componentType":5126,
			"count":14,
			"type":"VEC3"
		},
		{
			"bufferView":28,
			"componentType":5126,
			"count":14,
			"type":"VEC2"
		},
		{
			"bufferView":29,
			"componentType":5126,
			"count":1288,
			"max":[
				1.5336788892745972,
				1.5336757898330688,
				11.200614929199219
			],
			"min":[
				-1.5336790084838867,
				-1.5336823463439941,
				-0.7437191009521484
			],
			"type":"VEC3"
		},
		{
			"bufferView":30,
			"componentType":5126,
			"count":1288,
			"type":"VEC3"
		},
		{
			"bufferView":31,
			"componentType":5126,
			"count":1288,
			"type":"VEC2"
		},
		{
			"bufferView":32,
			"componentType":5123,
			"count":4032,
			"type":"SCALAR"
		},
		{
			"bufferView":33,
			"componentType":5126,
			"count":14,
			"max":[
				4.808106422424316,
				5.551931381225586,
				0.3585653305053711
			],
			"min":[
				-4.80810022354126,
				-5.5519304275512695,
				-31.328292846679688
			],
			"type":"VEC3"
		},
		{
			"bufferView":34,
			"componentType":5126,
			"count":14,
			"type":"VEC3"
		},
		{
			"bufferView":35,
			"componentType":5126,
			"count":14,
			"type":"VEC2"
		},
		{
			"bufferView":36,
			"componentType":5126,
			"count":442,
			"max":[
				0.3852878510951996,
				0.3878015875816345,
				2.3388826847076416
			],
			"min":[
				-0.38528791069984436,
				-0.38780176639556885,
				-1.6442176047348767e-06
			],
			"type":"VEC3"
		},
		{
			"bufferView":37,
			"componentType":5126,
			"count":442,
			"type":"VEC3"
		},
		{
			"bufferView":38,
			"componentType":5126,
			"count":442,
			"type":"VEC2"
		},
		{
			"bufferView":39,
			"componentType":5123,
			"count":1548,
			"type":"SCALAR"
		},
		{
			"bufferView":40,
			"componentType":5126,
			"count":14,
			"max":[
				4.808106422424316,
				5.551931381225586,
				0.3585653305053711
			],
			"min":[
				-4.80810022354126,
				-5.5519304275512695,
				-31.328292846679688
			],
			"type":"VEC3"
		},
		{
			"bufferView":41,
			"componentType":5126,
			"count":14,
			"type":"VEC3"
		},
		{
			"bufferView":42,
			"componentType":5126,
			"count":14,
			"type":"VEC2"
		},
		{
			"bufferView":43,
			"componentType":5126,
			"count":442,
			"max":[
				0.3852878510951996,
				0.3878015875816345,
				2.3388826847076416
			],
			"min":[
				-0.38528791069984436,
				-0.38780176639556885,
				-1.6442176047348767e-06
			],
			"type":"VEC3"
		},
		{
			"bufferView":44,
			"componentType":5126,
			"count":442,
			"type":"VEC3"
		},
		{
			"bufferView":45,
			"componentType":5126,
			"count":442,
			"type":"VEC2"
		},
		{
			"bufferView":46,
			"componentType":5126,
			"count":14,
			"max":[
				4.808106422424316,
				5.551931381225586,
				0.3585653305053711
			],
			"min":[
				-4.80810022354126,
				-5.5519304275512695,
				-31.328292846679688
			],
			"type":"VEC3"
		},
		{
			"bufferView":47,
			"componentType":5126,
			"count":14,
			"type":"VEC3"
		},
		{
			"bufferView":48,
			"componentType":5126,
			"count":14,
			"type":"VEC2"
		},
		{
			"bufferView":49,
			"componentType":5126,
			"count":442,
			"max":[
				0.3878016769886017,
				0.3852878510951996,
				2.3388826847076416
			],
			"min":[
				-0.38780173659324646,
				-0.3852878510951996,
				-1.5528721633017994e-06
			],
			"type":"VEC3"
		},
		{
			"bufferView":50,
			"componentType":5126,
			"count":442,
			"type":"VEC3"
		},
		{
			"bufferView":51,
			"componentType":5126,
			"count":442,
			"type":"VEC2"
		},
		{
			"bufferView":52,
			"componentType":5126,
			"count":14,
			"max":[
				4.808106422424316,
				5.551931381225586,
				0.3585653305053711
			],
			"min":[
				-4.80810022354126,
				-5.5519304275512695,
				-31.328292846679688
			],
			"type":"VEC3"
		},
		{
			"bufferView":53,
			"componentType":5126,
			"count":14,
			"type":"VEC3"
		},
		{
			"bufferView":54,
			"componentType":5126,
			"count":14,
			"type":"VEC2"
		},
		{
			"bufferView":55,
			"componentType":5126,
			"count":442,
			"max":[
				0.3878016769886017,
				0.3852878510951996,
				2.3388826847076416
			],
			"min":[
				-0.38780173659324646,
				-0.3852878510951996,
				-1.5528721633017994e-06
			],
			"type":"VEC3"
		},
		{
			"bufferView":56,
			"componentType":5126,
			"count":442,
			"type":"VEC3"
		},
		{
			"bufferView":57,
			"componentType":5126,
			"count":442,
			"type":"VEC2"
		}
	],
	"bufferViews":[
		{
			"buffer":0,
			"byteLength":2760,
			"byteOffset":0,
			"target":34962
		},
		{
			"buffer":0,
			"byteLength":2760,
			"byteOffset":2760,
			"target":34962
		},
		{
			"buffer":0,
			"byteLength":1840,
			"byteOffset":5520,
			"target":34962
		},
		{
			"buffer":0,
			"byteLength":1344,
			"byteOffset":7360,
			"target":34963
		},
		{
			"buffer":0,
			"byteLength":45887,
			"byteOffset":8704
		},
		{
			"buffer":0,
			"byteLength":2760,
			"byteOffset":54592,
			"target":34962
		},
		{
			"buffer":0,
			"byteLength":2760,
			"byteOffset":57352,
			"target":34962
		},
		{
			"buffer":0,
			"byteLength":1840,
			"byteOffset":60112,
			"target":34962
		},
		{
			"buffer":0,
			"byteLength":1344,
			"byteOffset":61952,
			"target":34963
		},
		{
			"buffer":0,
			"byteLength":168,
			"byteOffset":63296,
			"target":34962
		},
		{
			"buffer":0,
			"byteLength":168,
			"byteOffset":63464,
			"target":34962
		},
		{
			"buffer":0,
			"byteLength":112,
			"byteOffset":63632,
			"target":34962
		},
		{
			"buffer":0,
			"byteLength":36,
			"byteOffset":63744,
			"target":34963
		},
		{
			"buffer":0,
			"byteLength":4519,
			"byteOffset":63780
		},
		{
			"buffer":0,
			"byteLength":32868,
			"byteOffset":68300
		},
		{
			"buffer":0,
			"byteLength":34320,
			"byteOffset":101168,
			"target":34962
		},
		{
			"buffer":0,
			"byteLength":34320,
			"byteOffset":135488,
			"target":34962
		},
		{
			"buffer":0,
			"byteLength":22880,
			"byteOffset":169808,
			"target":34962
		},
		{
			"buffer":0,
			"byteLength":13800,
			"byteOffset":192688,
			"target":34963
		},
		{
			"buffer":0,
			"byteLength":168,
			"byteOffset":206488,
			"target":34962
		},
		{
			"buffer":0,
			"byteLength":168,
			"byteOffset":206656,
			"target":34962
		},
		{
			"buffer":0,
			"byteLength":112,
			"byteOffset":206824,
			"target":34962
		},
		{
			"buffer":0,
			"byteLength":26136,
			"byteOffset":206936,
			"target":34962
		},
		{
			"buffer":0,
			"byteLength":26136,
			"byteOffset":233072,
			"target":34962
		},
		{
			"buffer":0,
			"byteLength":17424,
			"byteOffset":259208,
			"target":34962
		},
		{
			"buffer":0,
			"byteLength":13056,
			"byteOffset":276632,
			"target":34963
		},
		{
			"buffer":0,
			"byteLength":168,
			"byteOffset":289688,
			"target":34962
		},
		{
			"buffer":0,
			"byteLength":168,
			"byteOffset":289856,
			"target":34962
		},
		{
			"buffer":0,
			"byteLength":112,
			"byteOffset":290024,
			"target":34962
		},
		{
			"buffer":0,
			"byteLength":15456,
			"byteOffset":290136,
			"target":34962
		},
		{
			"buffer":0,
			"byteLength":15456,
			"byteOffset":305592,
			"target":34962
		},
		{
			"buffer":0,
			"byteLength":10304,
			"byteOffset":321048,
			"target":34962
		},
		{
			"buffer":0,
			"byteLength":8064,
			"byteOffset":331352,
			"target":34963
		},
		{
			"buffer":0,
			"byteLength":168,
			"byteOffset":339416,
			"target":34962
		},
		{
			"buffer":0,
			"byteLength":168,
			"byteOffset":339584,
			"target":34962
		},
		{
			"buffer":0,
			"byteLength":112,
			"byteOffset":339752,
			"target":34962
		},
		{
			"buffer":0,
			"byteLength":5304,
			"byteOffset":339864,
			"target":34962
		},
		{
			"buffer":0,
			"byteLength":5304,
			"byteOffset":345168,
			"target":34962
		},
		{
			"buffer":0,
			"byteLength":3536,
			"byteOffset":350472,
			"target":34962
		},
		{
			"buffer":0,
			"byteLength":3096,
			"byteOffset":354008,
			"target":34963
		},
		{
			"buffer":0,
			"byteLength":168,
			"byteOffset":357104,
			"target":34962
		},
		{
			"buffer":0,
			"byteLength":168,
			"byteOffset":357272,
			"target":34962
		},
		{
			"buffer":0,
			"byteLength":112,
			"byteOffset":357440,
			"target":34962
		},
		{
			"buffer":0,
			"byteLength":5304,
			"byteOffset":357552,
			"target":34962
		},
		{
			"buffer":0,
			"byteLength":5304,
			"byteOffset":362856,
			"target":34962
		},
		{
			"buffer":0,
			"byteLength":3536,
			"byteOffset":368160,
			"target":34962
		},
		{
			"buffer":0,
			"byteLength":168,
			"byteOffset":371696,
			"target":34962
		},
		{
			"buffer":0,
			"byteLength":168,
			"byteOffset":371864,
			"target":34962
		},
		{
			"buffer":0,
			"byteLength":112,
			"byteOffset":372032,
			"target":34962
		},
		{
			"buffer":0,
			"byteLength":5304,
			"byteOffset":372144,
			"target":34962
		},
		{
			"buffer":0,
			"byteLength":5304,
			"byteOffset":377448,
			"target":34962
		},
		{
			"buffer":0,
			"byteLength":3536,
			"byteOffset":382752,
			"target":34962
		},
		{
			"buffer":0,
			"byteLength":168,
			"byteOffset":386288,
			"target":34962
		},
		{
			"buffer":0,
			"byteLength":168,
			"byteOffset":386456,
			"target":34962
		},
		{
			"buffer":0,
			"byteLength":112,
			"byteOffset":386624,
			"target":34962
		},
		{
			"buffer":0,
			"byteLength":5304,
			"byteOffset":386736,
			"target":34962
		},
		{
			"buffer":0,
			"byteLength":5304,
			"byteOffset":392040,
			"target":34962
		},
		{
			"buffer":0,
			"byteLength":3536,
			"byteOffset":397344,
			"target":34962
		}
	],
	"samplers":[
		{
			"magFilter":9729,
			"minFilter":9987
		}
	],
	"buffers":[
		{
			"byteLength":400880,
			"uri":"data:application/octet-stream;base64,"
		}
	]
}
